<svg width="32" height="31" viewBox="0 0 32 31" fill="none" xmlns="http://www.w3.org/2000/svg">
<g clip-path="url(#clip0_275_921)">
<path d="M26.7849 2.30622V28.9576C26.7849 29.2942 26.6512 29.617 26.4132 29.855C26.1752 30.093 25.8524 30.2268 25.5158 30.2268H6.47908C6.14279 30.2258 5.82057 30.0917 5.58279 29.8539C5.345 29.6161 5.21097 29.2939 5.20996 28.9576V4.84445H9.01731V1.03711H25.5158C25.8521 1.03811 26.1743 1.17215 26.4121 1.40993C26.6499 1.64772 26.7839 1.96994 26.7849 2.30622Z" fill="#DEE3F3"/>
<path d="M9.01731 1.03711V4.84445H5.20996L9.01731 1.03711Z" fill="#65769C"/>
<path d="M7.11328 2.94078L9.01695 4.84445V1.03711L7.11328 2.94078Z" fill="#96A1C3"/>
<path d="M9.65186 1.03711V5.47901H5.20996V4.84445H9.01731V1.03711H9.65186Z" fill="#CCD3EB"/>
<path d="M8.9541 5.47901C9.93439 9.78184 12.14 13.7086 15.3044 16.7847C18.4687 19.8608 22.4563 21.9544 26.7852 22.8126V2.30622C26.7842 1.96994 26.6501 1.64772 26.4123 1.40993C26.1746 1.17215 25.8523 1.03811 25.5161 1.03711H9.65212V5.47901H8.9541Z" fill="#F0F3FF"/>
<path d="M25.5159 30.2267C28.3196 30.2267 30.5924 27.9538 30.5924 25.1502C30.5924 22.3465 28.3196 20.0737 25.5159 20.0737C22.7123 20.0737 20.4395 22.3465 20.4395 25.1502C20.4395 27.9538 22.7123 30.2267 25.5159 30.2267Z" fill="#64E1DC"/>
<path d="M25.5161 29.5923C27.9693 29.5923 29.958 27.6036 29.958 25.1504C29.958 22.6972 27.9693 20.7085 25.5161 20.7085C23.0629 20.7085 21.0742 22.6972 21.0742 25.1504C21.0742 27.6036 23.0629 29.5923 25.5161 29.5923Z" fill="#96EBE6"/>
<path d="M24.247 27.6884C24.0788 27.6884 23.9174 27.6215 23.7984 27.5025L22.5293 26.2333L23.4266 25.3361L24.247 26.1566L27.6058 22.7979L28.503 23.6951L24.6957 27.5025C24.5767 27.6215 24.4153 27.6884 24.247 27.6884Z" fill="#4294FF"/>
<path d="M25.5156 29.5922C24.5549 29.5919 23.6201 29.2802 22.8515 28.7037C22.083 28.1272 21.522 27.3171 21.2529 26.3948C20.9837 25.4725 21.0208 24.4878 21.3586 23.5884C21.6964 22.689 22.3167 21.9234 23.1265 21.4064C23.2 21.103 23.3016 20.8071 23.4298 20.5225C22.6801 20.8594 22.0234 21.3734 21.5163 22.0203C21.0091 22.6671 20.6665 23.4274 20.5181 24.2358C20.3696 25.0443 20.4197 25.8767 20.664 26.6615C20.9083 27.4463 21.3395 28.1601 21.9206 28.7414C22.5017 29.3228 23.2152 29.7544 23.9999 29.999C24.7846 30.2437 25.617 30.2942 26.4255 30.1461C27.234 29.998 27.9945 29.6558 28.6416 29.149C29.2886 28.6421 29.8029 27.9856 30.1403 27.2361C29.8557 27.3643 29.5597 27.4659 29.2563 27.5394C28.8557 28.1685 28.3029 28.6864 27.6491 29.0452C26.9952 29.404 26.2615 29.5922 25.5156 29.5922Z" fill="#00C8C8"/>
<path d="M21.0742 25.1501C21.0745 26.1109 21.3862 27.0456 21.9627 27.8142C22.5392 28.5828 23.3494 29.1437 24.2716 29.4129C25.1939 29.6821 26.1786 29.645 27.078 29.3072C27.9774 28.9693 28.743 28.349 29.26 27.5392C28.5932 27.7056 27.8993 27.7332 27.2214 27.6201C26.5435 27.507 25.8961 27.2557 25.3194 26.8818L24.6988 27.5024C24.5798 27.6214 24.4184 27.6882 24.2502 27.6882C24.0819 27.6882 23.9205 27.6214 23.8015 27.5024L22.5324 26.2333L23.4297 25.3361L24.247 26.1565L24.3397 26.0639C23.7639 25.451 23.3512 24.7035 23.1394 23.8897C22.9275 23.076 22.9232 22.2221 23.127 21.4062C22.4975 21.8071 21.9792 22.3604 21.6204 23.0149C21.2616 23.6693 21.0737 24.4038 21.0742 25.1501Z" fill="#64E1DC"/>
<path d="M28.5645 26.9481C28.7689 26.7437 28.704 26.3473 28.4195 26.0628C28.135 25.7784 27.7387 25.7135 27.5342 25.9179C27.3298 26.1224 27.3947 26.5187 27.6792 26.8032C27.9637 27.0877 28.36 27.1526 28.5645 26.9481Z" fill="#F6FAFD"/>
<path d="M29.4143 25.7385C29.5166 25.6361 29.4843 25.4379 29.342 25.2956C29.1998 25.1534 29.0015 25.121 28.8992 25.2234C28.7968 25.3257 28.8292 25.524 28.9714 25.6662C29.1137 25.8085 29.3119 25.8408 29.4143 25.7385Z" fill="#F6FAFD"/>
<path d="M10.9209 16.9014H24.8812V18.1705H10.9209V16.9014Z" fill="#65769C"/>
<path d="M8.38281 16.9014H9.65193V18.1705H8.38281V16.9014Z" fill="#65769C"/>
<path d="M7.11328 19.4395H20.439V20.7086H7.11328V19.4395Z" fill="#65769C"/>
<path d="M7.11328 21.978H18.5353V23.2471H7.11328V21.978Z" fill="#65769C"/>
<path d="M7.11328 24.5161H18.5353V25.7852H7.11328V24.5161Z" fill="#65769C"/>
<path d="M20.4395 25.1502C20.4394 24.4344 20.5912 23.7268 20.8849 23.0741C21.1786 22.4214 21.6075 21.8384 22.1433 21.3638C21.7492 21.1931 21.3659 21.0046 20.9839 20.813C19.9636 21.4278 19.1924 22.3822 18.8054 23.5088C18.4183 24.6353 18.4403 25.8622 18.8674 26.9742C19.2945 28.0863 20.0994 29.0124 21.1411 29.5903C22.1827 30.1682 23.3946 30.3609 24.5641 30.1346C23.4042 29.9132 22.3577 29.2944 21.6049 28.3846C20.8521 27.4748 20.44 26.3311 20.4395 25.1502Z" fill="#ADB5D5"/>
<path d="M23.6117 20.0737C22.6844 20.0741 21.775 20.3299 20.9834 20.813C21.3641 21.0034 21.7487 21.1937 22.1427 21.3638C22.826 20.7521 23.6629 20.338 24.5636 20.1657C24.2499 20.1054 23.9312 20.0746 23.6117 20.0737Z" fill="#DEE3F3"/>
<path d="M19.8044 12.4593V14.9975H15.9971V13.0938L17.2662 11.8247L19.8044 12.4593Z" fill="#4294FF"/>
<path d="M15.9978 13.0938V14.9975H12.1904V12.4593L14.7287 11.8247L15.9978 13.0938Z" fill="#376DFF"/>
<path d="M19.1698 6.74798L17.9007 8.0171V7.38254C15.3624 7.38254 15.3624 6.11343 15.3624 6.11343C15.366 6.28106 15.3356 6.44768 15.2731 6.60326C15.2105 6.75884 15.1172 6.90016 14.9986 7.01872C14.8801 7.13729 14.7387 7.23064 14.5832 7.29316C14.4276 7.35568 14.261 7.38609 14.0933 7.38254V8.0171L12.8242 6.74798C12.8242 5.90651 13.1585 5.0995 13.7535 4.50448C14.3485 3.90947 15.1555 3.5752 15.997 3.5752C16.8385 3.5752 17.6455 3.90947 18.2405 4.50448C18.8355 5.0995 19.1698 5.90651 19.1698 6.74798Z" fill="#2B3E5B"/>
<path d="M14.0938 7.38288C14.2614 7.38643 14.428 7.35603 14.5836 7.2935C14.7392 7.23098 14.8805 7.13763 14.999 7.01907C15.1176 6.90051 15.211 6.75918 15.2735 6.6036C15.336 6.44802 15.3664 6.2814 15.3629 6.11377C15.3629 6.11377 15.3629 7.38288 17.9011 7.38288V8.652C17.9011 9.15689 17.7005 9.64109 17.3435 9.9981C16.9865 10.3551 16.5023 10.5557 15.9974 10.5557C15.4925 10.5557 15.0083 10.3551 14.6513 9.9981C14.2943 9.64109 14.0938 9.15689 14.0938 8.652V7.38288Z" fill="#FFC9BD"/>
<path d="M15.3629 6.11377C15.3664 6.2814 15.336 6.44802 15.2735 6.6036C15.211 6.75918 15.1176 6.90051 14.999 7.01907C14.8805 7.13763 14.7392 7.23098 14.5836 7.2935C14.428 7.35603 14.2614 7.38643 14.0938 7.38288V8.01744C14.2614 8.02099 14.428 7.99059 14.5836 7.92806C14.7392 7.86554 14.8805 7.77219 14.999 7.65363C15.1176 7.53506 15.211 7.39374 15.2735 7.23816C15.336 7.08258 15.3664 6.91596 15.3629 6.74833C15.3629 6.74833 15.3629 8.01744 17.9011 8.01744V7.38288C15.3629 7.38288 15.3629 6.11377 15.3629 6.11377Z" fill="#FFB4A3"/>
<path d="M19.0994 6.08681C19.0017 5.62906 18.8041 5.19856 18.5205 4.8262C18.2369 4.45383 17.8745 4.14882 17.4591 3.93302C17.0438 3.71723 16.5859 3.596 16.1182 3.57802C15.6505 3.56005 15.1846 3.64578 14.7539 3.82906C14.9823 5.17813 17.0021 5.94594 19.0994 6.08681Z" fill="#415372"/>
<path d="M24.6417 4.60082C25.0486 4.19392 24.9193 3.40482 24.3528 2.83833C23.7863 2.27184 22.9972 2.14246 22.5903 2.54937C22.1834 2.95627 22.3127 3.74537 22.8792 4.31186C23.4457 4.87835 24.2348 5.00773 24.6417 4.60082Z" fill="#F6FAFD"/>
<path d="M24.7637 6.63758C24.9681 6.43313 24.9032 6.03678 24.6187 5.75229C24.3343 5.4678 23.9379 5.40292 23.7335 5.60736C23.529 5.8118 23.5939 6.20816 23.8784 6.49265C24.1629 6.77713 24.5592 6.84202 24.7637 6.63758Z" fill="#F6FAFD"/>
<path d="M17.9983 5.4255C18.1006 5.32315 18.0683 5.12487 17.926 4.98263C17.7838 4.84039 17.5855 4.80804 17.4832 4.91039C17.3808 5.01274 17.4132 5.21101 17.5554 5.35326C17.6976 5.4955 17.8959 5.52784 17.9983 5.4255Z" fill="#F6FAFD"/>
</g>
<defs>
<clipPath id="clip0_275_921">
<rect width="30.4588" height="30.4588" fill="white" transform="translate(0.767578 0.402344)"/>
</clipPath>
</defs>
</svg>
