<svg width="31" height="30" viewBox="0 0 31 30" fill="none" xmlns="http://www.w3.org/2000/svg">
<g clip-path="url(#clip0_607_400)">
<path d="M25.8521 5.37149C23.9257 4.47017 21.8659 3.81513 19.7124 3.44214C19.4479 3.9203 19.139 4.56343 18.9259 5.07504C16.6367 4.73077 14.3686 4.73077 12.1215 5.07504C11.9085 4.56343 11.5925 3.9203 11.3256 3.44214C9.16982 3.81513 7.10764 4.47258 5.18122 5.37627C1.29562 11.2479 0.242292 16.9737 0.768955 22.6182C3.34609 24.5428 5.84365 25.7119 8.29905 26.4769C8.9053 25.6425 9.446 24.7556 9.9118 23.8208C9.02467 23.4837 8.17499 23.0677 7.37215 22.5848C7.58514 22.427 7.79348 22.262 7.99476 22.0923C12.8915 24.3826 18.212 24.3826 23.0503 22.0923C23.2539 22.262 23.4622 22.427 23.6729 22.5848C22.8677 23.0701 22.0157 23.4861 21.1286 23.8232C21.5944 24.7556 22.1327 25.6449 22.7413 26.4793C25.1991 25.7143 27.699 24.5452 30.2761 22.6182C30.8941 16.0748 29.2204 10.4016 25.8521 5.37149ZM10.5789 19.1469C9.10895 19.1469 7.90346 17.7746 7.90346 16.1035C7.90346 14.4324 9.08321 13.0577 10.5789 13.0577C12.0747 13.0577 13.2801 14.43 13.2544 16.1035C13.2567 17.7746 12.0747 19.1469 10.5789 19.1469ZM20.4661 19.1469C18.9962 19.1469 17.7907 17.7746 17.7907 16.1035C17.7907 14.4324 18.9704 13.0577 20.4661 13.0577C21.9618 13.0577 23.1673 14.43 23.1416 16.1035C23.1416 17.7746 21.9618 19.1469 20.4661 19.1469Z" fill="#9E94E1"/>
</g>
<defs>
<clipPath id="clip0_607_400">
<rect width="29.76" height="29.76" fill="white" transform="translate(0.642578 0.128906)"/>
</clipPath>
</defs>
</svg>
