<svg width="29" height="28" viewBox="0 0 29 28" fill="none" xmlns="http://www.w3.org/2000/svg">
<path fill-rule="evenodd" clip-rule="evenodd" d="M2.01172 13.856C2.01172 8.6031 2.01172 5.97667 3.26343 4.08492C3.82238 3.24017 4.54583 2.51672 5.39059 1.95777C7.28233 0.706055 9.90876 0.706055 15.1616 0.706055C20.4145 0.706055 23.0409 0.706055 24.9326 1.95777C25.7774 2.51672 26.5009 3.24017 27.0598 4.08492C28.3115 5.97667 28.3115 8.6031 28.3115 13.856C28.3115 19.1088 28.3115 21.7352 27.0598 23.627C26.5009 24.4717 25.7774 25.1952 24.9326 25.7541C23.0409 27.0059 20.4145 27.0059 15.1616 27.0059C9.90876 27.0059 7.28233 27.0059 5.39059 25.7541C4.54583 25.1952 3.82238 24.4717 3.26343 23.627C2.01172 21.7352 2.01172 19.1088 2.01172 13.856ZM21.9714 13.8562C21.9714 17.6161 18.9234 20.6641 15.1635 20.6641C11.4037 20.6641 8.35568 17.6161 8.35568 13.8562C8.35568 10.0963 11.4037 7.04834 15.1635 7.04834C18.9234 7.04834 21.9714 10.0963 21.9714 13.8562ZM15.1635 18.3608C17.6514 18.3608 19.6681 16.344 19.6681 13.8562C19.6681 11.3684 17.6514 9.35163 15.1635 9.35163C12.6757 9.35163 10.659 11.3684 10.659 13.8562C10.659 16.344 12.6757 18.3608 15.1635 18.3608ZM22.2403 8.30598C23.1237 8.30598 23.8399 7.5898 23.8399 6.70634C23.8399 5.82288 23.1237 5.10669 22.2403 5.10669C21.3568 5.10669 20.6406 5.82288 20.6406 6.70634C20.6406 7.5898 21.3568 8.30598 22.2403 8.30598Z" fill="#9E94E1"/>
</svg>
