<svg width="28" height="28" viewBox="0 0 28 28" fill="none" xmlns="http://www.w3.org/2000/svg">
<path d="M1.45312 4.97132C1.45312 4.12795 1.7493 3.43219 2.34163 2.88403C2.93396 2.33585 3.70402 2.06177 4.65175 2.06177C5.58257 2.06177 6.33567 2.33162 6.91109 2.87138C7.50342 3.42799 7.7996 4.15325 7.7996 5.04722C7.7996 5.85683 7.5119 6.53149 6.93648 7.07125C6.34415 7.62786 5.56564 7.90616 4.60098 7.90616H4.57559C3.64477 7.90616 2.89167 7.62786 2.31625 7.07125C1.74082 6.51464 1.45312 5.81466 1.45312 4.97132ZM1.78314 27.1092V10.2085H7.41881V27.1092H1.78314ZM10.5413 27.1092H16.1769V17.6721C16.1769 17.0818 16.2447 16.6264 16.38 16.3059C16.617 15.7324 16.9766 15.2475 17.4589 14.8511C17.9413 14.4547 18.5463 14.2566 19.274 14.2566C21.1695 14.2566 22.1173 15.53 22.1173 18.0769V27.1092H27.7529V17.4191C27.7529 14.9228 27.1606 13.0295 25.9759 11.7392C24.7912 10.4489 23.2258 9.8037 21.2795 9.8037C19.0963 9.8037 17.3955 10.7398 16.1769 12.612V12.6626H16.1516L16.1769 12.612V10.2085H10.5413C10.5751 10.7482 10.5921 12.4265 10.5921 15.2433C10.5921 18.0601 10.5751 22.0153 10.5413 27.1092Z" fill="#9E94E1"/>
</svg>
