<svg width="28" height="28" viewBox="0 0 28 28" fill="none" xmlns="http://www.w3.org/2000/svg">
<g clip-path="url(#clip0_607_421)">
<path d="M13.7695 27.5088C21.2254 27.5088 27.2695 21.4646 27.2695 14.0088C27.2695 6.55294 21.2254 0.508789 13.7695 0.508789C6.31369 0.508789 0.269531 6.55294 0.269531 14.0088C0.269531 21.4646 6.31369 27.5088 13.7695 27.5088Z" fill="#9E94E1"/>
<path d="M9.4082 14.9958L11.0099 19.429C11.0099 19.429 11.2101 19.8438 11.4245 19.8438C11.639 19.8438 14.8282 16.5259 14.8282 16.5259L18.3748 9.67578L9.46535 13.8514L9.4082 14.9958Z" fill="#C8DAEA"/>
<path d="M11.5316 16.1326L11.2241 19.4002C11.2241 19.4002 11.0954 20.4015 12.0965 19.4002C13.0975 18.399 14.0556 17.6269 14.0556 17.6269" fill="#A9C6D8"/>
<path d="M9.4364 15.1539L6.14173 14.0804C6.14173 14.0804 5.74798 13.9206 5.87476 13.5584C5.90086 13.4837 5.95351 13.4201 6.11101 13.3109C6.84103 12.8021 19.6229 8.20789 19.6229 8.20789C19.6229 8.20789 19.9838 8.08628 20.1967 8.16717C20.2493 8.18347 20.2967 8.21346 20.334 8.25408C20.3712 8.2947 20.397 8.34449 20.4088 8.39835C20.4318 8.49349 20.4414 8.59137 20.4373 8.68917C20.4363 8.77377 20.4261 8.85218 20.4183 8.97514C20.3405 10.2312 18.0108 19.6056 18.0108 19.6056C18.0108 19.6056 17.8714 20.1542 17.372 20.1729C17.2493 20.1769 17.127 20.1561 17.0125 20.1118C16.898 20.0675 16.7936 20.0006 16.7055 19.9151C15.7255 19.0721 12.3383 16.7958 11.5899 16.2952C11.573 16.2837 11.5588 16.2687 11.5482 16.2512C11.5376 16.2338 11.5309 16.2142 11.5285 16.1939C11.518 16.1412 11.5754 16.0758 11.5754 16.0758C11.5754 16.0758 17.4733 10.8333 17.6302 10.283C17.6424 10.2403 17.5965 10.2193 17.5348 10.238C17.1431 10.3821 10.3524 14.6705 9.6029 15.1437C9.54895 15.1601 9.49193 15.1635 9.4364 15.1539Z" fill="white"/>
</g>
<defs>
<clipPath id="clip0_607_421">
<rect width="27" height="27" fill="white" transform="translate(0.269531 0.508789)"/>
</clipPath>
</defs>
</svg>
