<svg width="24" height="25" viewBox="0 0 24 25" fill="none" xmlns="http://www.w3.org/2000/svg">
<path d="M4.65625 3.604C5.51562 3.02588 6.44531 2.58447 7.44531 2.27979C8.44531 1.9751 9.46094 1.82275 10.4922 1.82275C11.1953 1.82275 11.8828 1.89307 12.5547 2.03369C13.2266 2.15869 13.8789 2.354 14.5117 2.61963C15.1445 2.88525 15.75 3.20557 16.3281 3.58057C16.8906 3.97119 17.4219 4.40869 17.9219 4.89307C18.4062 5.39307 18.8438 5.92432 19.2344 6.48682C19.6094 7.06494 19.9297 7.67041 20.1953 8.30322C20.4609 8.93604 20.6562 9.58838 20.7812 10.2603C20.9219 10.9321 20.9922 11.6196 20.9922 12.3228C20.9922 13.354 20.8398 14.3696 20.5352 15.3696C20.2305 16.3696 19.7891 17.2993 19.2109 18.1587C18.6484 19.0181 17.9648 19.7759 17.1602 20.4321C16.3555 21.0884 15.4688 21.6196 14.5 22.0259C13.5469 22.4165 12.5547 22.6626 11.5234 22.7642C10.4922 22.8657 9.46875 22.8149 8.45312 22.6118C7.42188 22.4087 6.44922 22.0649 5.53516 21.5806C4.62109 21.0962 3.79688 20.4868 3.0625 19.7524C2.32812 19.0181 1.71875 18.1938 1.23438 17.2798C0.75 16.3657 0.40625 15.3931 0.203125 14.3618C0 13.3462 -0.0507812 12.3228 0.0507812 11.2915C0.152344 10.2603 0.398438 9.26807 0.789062 8.31494C1.19531 7.34619 1.72656 6.45947 2.38281 5.65479C3.03906 4.8501 3.79688 4.1665 4.65625 3.604ZM5.5 19.7993C6.23438 20.2993 7.02734 20.6782 7.87891 20.936C8.73047 21.1938 9.60156 21.3228 10.4922 21.3228C11.6797 21.3228 12.8281 21.0962 13.9375 20.6431C15.0469 20.1899 16.0234 19.5415 16.8672 18.6978C17.7109 17.854 18.3594 16.8774 18.8125 15.7681C19.2656 14.6587 19.4922 13.5103 19.4922 12.3228C19.4922 11.4321 19.3633 10.561 19.1055 9.70947C18.8477 8.85791 18.4688 8.06494 17.9688 7.33057C17.4844 6.58057 16.8984 5.92432 16.2109 5.36182C15.5234 4.79932 14.7656 4.34619 13.9375 4.00244C13.1094 3.65869 12.2539 3.44385 11.3711 3.35791C10.4883 3.27197 9.60938 3.31494 8.73438 3.48682C7.85938 3.65869 7.03125 3.95557 6.25 4.37744C5.46875 4.79932 4.75781 5.32275 4.11719 5.94775C3.49219 6.58838 2.96875 7.29932 2.54688 8.08057C2.125 8.86182 1.82812 9.68994 1.65625 10.5649C1.48437 11.4399 1.44141 12.3188 1.52734 13.2017C1.61328 14.0845 1.82812 14.9399 2.17188 15.7681C2.51562 16.5962 2.96875 17.354 3.53125 18.0415C4.09375 18.729 4.75 19.3149 5.5 19.7993ZM5.24219 12.6274L8.99219 16.3774L15.7422 9.62744L14.6875 8.57275L8.99219 14.2681L6.29688 11.5728L5.24219 12.6274Z" fill="url(#paint0_linear_246_955)"/>
<defs>
<linearGradient id="paint0_linear_246_955" x1="1.40378e-07" y1="12.3744" x2="20.9922" y2="12.3744" gradientUnits="userSpaceOnUse">
<stop stop-color="#9272A1"/>
<stop offset="0.46" stop-color="#4A569A"/>
<stop offset="1" stop-color="#112145"/>
</linearGradient>
</defs>
</svg>
